<?xml version="1.0" encoding="UTF-8" standalone="no"?>
<!DOCTYPE svg PUBLIC "-//W3C//DTD SVG 1.1//EN" "http://www.w3.org/Graphics/SVG/1.1/DTD/svg11.dtd">
<svg width="100%" height="100%" viewBox="0 0 1538 1010" version="1.1" xmlns="http://www.w3.org/2000/svg" xmlns:xlink="http://www.w3.org/1999/xlink" xml:space="preserve" xmlns:serif="http://www.serif.com/" style="fill-rule:evenodd;clip-rule:evenodd;stroke-linejoin:round;stroke-miterlimit:2;">
    <g transform="matrix(0.773995,0,0,0.760446,1755.840136,76.797563)">
        <g id="boost" transform="matrix(1.944306,0,0,1.978948,-2270.8356,-91.708345)">
            <g transform="matrix(0.541455,0,0,0.529818,60.638728,15.190593)">
                <rect x="-109.814" y="-37.524" width="1886.947" height="1266.468" style="fill:rgb(58,197,255);"/>
            </g>
            <path d="M829.917,184.623C827.931,184.051 826.751,184.057 826.01,184.499C823.945,185.732 825.301,190.358 822.162,195.292C818.959,200.329 817.245,200.053 818.652,203.639C813.503,212.531 816.252,227.38 725.499,226.489C724.262,226.879 676.723,221.949 673.863,261.922C672.563,280.095 698.596,322.694 730.539,315.713C792.908,302.084 793.563,304.132 856.54,314.238C897.198,320.762 876.396,345.949 875.104,347.038C848.55,369.423 820.128,327.298 785.506,336.52C762.494,342.649 736.721,359.442 733.3,361.157C725.994,364.821 734.741,364.203 742.594,366.204C762.04,371.161 805.852,401.552 810.342,405.676C823.95,418.176 815.405,432.132 811.169,435.053C780.621,456.108 746.466,409.934 740.178,404.906C713.362,383.466 639.357,410.94 595.473,415.041C573.818,417.064 571.208,386.564 558.929,388.837C553.978,389.754 495.69,397.793 463.505,396.359C447.048,395.625 445.166,391.111 433.266,402.246C371.725,459.836 341.311,454.856 327.453,457.248C270.28,467.114 253.749,530.533 219.457,529.775C219.273,529.521 214.395,525.75 217.741,516.598C221.23,507.054 266.274,474.814 282.585,448.544C283.847,446.511 277.938,446.761 277.509,446.779C273.951,446.93 274.139,446.965 270.646,447.156C254.747,449.672 254.497,449.895 242.347,456.233C235.92,456.466 214.424,457.246 169.817,490.911C155.011,502.084 156.024,503.846 138.471,509.458C134.314,494.723 136.19,489.402 155.412,478.328C226.712,437.248 216.659,419.455 232.539,416.7C272.101,409.836 275.974,404.868 291.791,366.617C308.484,328.714 310.39,329.776 328.3,310.356C328.877,309.731 328.999,308.84 319.614,304.211C315.176,302.022 315.379,311.278 288.458,308.167C284.16,306.1 284.119,306.565 278.728,303.225C276.453,301.215 274.177,299.206 271.901,297.196C264.221,286.984 263.805,287.139 259.869,273.386C259.416,270.09 258.962,266.795 258.509,263.499C258.567,261.83 258.533,262.024 258.385,254.4C271.706,217.382 287.236,227.983 290.093,220.376C300.166,193.552 303.899,191.528 334.519,179.55C489.431,118.952 489.232,116.578 505.501,116.93C560.387,118.117 573.489,156.926 574.899,158.055C585.604,166.625 585.393,166.637 593.547,177.428C595.416,179.902 616.253,143.306 618.016,140.209C625.258,127.488 609.908,125.519 619.165,93.404C635.928,35.249 637.417,34.208 642.521,33.936C651.01,33.485 666.728,71.532 672.493,91.506C674.61,98.843 680.163,45.636 683.349,37.426C692.314,14.315 714.044,101.701 715.414,102.602C729.655,111.966 745.7,103.713 755.81,133.389C758.103,140.121 783.356,141.743 825.439,149.801C844.683,153.486 838.649,163.233 829.917,184.623Z" style="fill:rgb(39,34,38);"/>
            <path d="M450.386,166.498C453.163,181.673 452.533,181.836 461.711,202.408C463.054,205.229 466.928,213.364 481.762,235.923C419.913,260.365 374.734,274.334 343.422,289.335C341.418,290.296 338.32,286.765 335.992,284.074C326.333,272.908 319.255,254.378 318.198,251.612C314.89,238.459 314.168,237.239 315.309,217.491C331.715,210.528 436.498,173.825 450.386,166.498Z" style="fill:rgb(152,174,198);"/>
            <path d="M1.197,603.481L2.5,602.46L3.049,601.5C26.804,566.911 76.447,564.128 88.339,620.602C88.475,621.247 114.272,607.068 130.451,625.544C142.671,639.498 135.008,648.754 143.569,646.85C162.974,642.533 174.548,666.039 167.5,666.071C154.195,666.133 6.174,666.82 1.18,665.517C1.185,644.838 1.191,624.16 1.197,603.481Z" style="fill:rgb(216,244,254);"/>
            <path d="M1022.859,434.468C1022.865,448.485 1022.871,462.503 1022.877,476.52C1009.653,479.45 854.181,477.6 839.512,477.426C835.819,477.382 843.114,468.241 853.554,466.989C863.159,465.838 861.947,424.976 907.405,439.771C909.598,440.485 908.897,438.943 910.694,432.556C917.664,407.787 948.489,392.477 973.241,406.995C991.087,417.462 994.027,434.32 994.815,436.261C996.492,440.392 998.48,428.944 1022.859,434.468Z" style="fill:rgb(215,243,254);"/>
            <g transform="matrix(1,0,0,1,4.452541,-0.561853)">
                <path d="M809.137,208.515C809.128,208.931 807.596,225.399 723.983,222.727C720.497,221.344 696.381,221.785 675.669,198.357C664.202,185.385 665.854,158.289 691.831,175.004C708.494,185.726 737.271,157.632 763.493,159.773C774.565,160.677 799.257,161.035 800.024,161.927C802.436,164.733 796.302,167.989 806.292,178.414C810.461,182.765 817.48,182.348 816.791,184.741C810.279,207.328 776.084,214.581 731.311,195.905C721.353,191.752 719.307,198.515 723.774,201.004C732.573,205.906 774.478,218.701 801.368,209.078C806.599,207.205 809.251,203.294 809.137,208.515Z" style="fill:rgb(183,95,40);"/>
            </g>
            <path d="M258.385,254.4C258.533,262.024 258.567,261.83 258.509,263.499C249.258,267.526 245.23,267.561 223.682,276.891C186.747,292.884 162.843,326.506 201.5,326.727C243.856,326.969 258.733,317.478 278.728,303.225C284.119,306.565 284.16,306.1 288.458,308.167C256.533,338.336 240.889,345.533 186.471,356.332C173.059,358.994 189.488,351.449 189.844,347.537C189.942,346.458 167.746,344.244 95.503,367.545C90.501,369.159 97.804,363.336 98.128,363.077C175.444,301.435 162.144,276.87 258.385,254.4Z" style="fill:rgb(240,143,39);"/>
            <path d="M460.891,137.623C464.669,130.425 495.766,122.014 505.502,121.562C537.614,120.069 556.656,140.845 559.84,144.319C558.184,145.128 558.466,145.455 556.583,145.91C554.391,146.439 561.251,151.281 542.066,170.064C535.135,176.85 509.067,185.786 471.321,200.661C461.307,180.31 460.702,170.339 459.103,163.643C462.284,162.119 473.878,156.563 500.386,148.157C535.025,137.172 553.679,154.657 547.154,146.681C527.247,122.349 499.512,136.449 459.5,149.71L458.634,149.522C459.387,145.556 460.139,141.589 460.891,137.623Z" style="fill:rgb(168,190,213);"/>
            <path d="M559.84,144.319C564.406,150.405 568.929,155.109 563.494,154.901C549.309,154.359 544.732,177.982 559.944,200.176C562.735,204.249 564.493,206.566 559.494,207.132C535.426,209.861 494.363,234.941 490.596,230.4C477.273,214.344 474.843,207.37 471.321,200.661C509.067,185.786 535.135,176.85 542.066,170.064C561.251,151.281 554.391,146.439 556.583,145.91C558.466,145.455 558.184,145.128 559.84,144.319Z" style="fill:rgb(127,150,174);"/>
            <path d="M242.347,456.233C241.222,457.023 241.324,456.984 241.222,457.023C222.012,464.451 177.191,516.914 163.424,520.137C140.036,525.613 143.336,531.363 119.145,555.115C109.197,564.884 93.401,571.518 95.777,567.585C125,519.21 123.643,517.194 138.471,509.458C156.024,503.846 155.011,502.084 169.817,490.911C214.424,457.246 235.92,456.466 242.347,456.233Z" style="fill:rgb(224,129,36);"/>
            <path d="M469.387,256.215C479.527,252.355 479.874,251.083 481.147,252.782C481.595,253.38 480.766,260.117 480.907,266.487C481.74,304.089 496.111,324.489 489.326,327.132C486.972,328.05 465.839,336.284 459.515,337.578C455.448,338.411 447.716,304.887 448.916,271.513C449.258,261.998 455.48,262.226 469.387,256.215Z" style="fill:rgb(105,123,144);"/>
            <path d="M258.509,263.499C258.962,266.795 259.416,270.09 259.869,273.386C209.987,296.824 217.563,307.932 221.415,309.679C224.041,310.871 251.06,313.545 271.901,297.196C274.177,299.206 276.453,301.215 278.728,303.225C258.733,317.478 243.856,326.969 201.5,326.727C162.843,326.506 186.747,292.884 223.682,276.891C245.23,267.561 249.258,267.526 258.509,263.499Z" style="fill:rgb(251,188,48);"/>
            <path d="M535.659,244.38C533.453,240.939 533.332,241.263 531.31,237.598C529.27,233.899 547.573,228.403 548.47,228.598C550.729,229.09 577.697,265.485 580.133,268.772C606.873,304.859 602.712,328.289 602.502,328.282C593.395,327.97 578.538,303.755 576.982,301.218C558.526,271.134 557.039,272.422 535.659,244.38Z" style="fill:rgb(55,63,77);"/>
            <path d="M455.558,258.646C449.518,261.477 440.208,265.84 378.493,290.482C358.123,298.616 357.437,296.295 337.464,305.414C332.387,307.731 331.131,299.883 344.768,292.97C348.161,291.25 546.829,214.403 548.391,215.65C548.51,215.746 548.953,222.513 548.481,223.489C546.829,226.909 542.44,223.813 489.275,248.026C486.143,249.452 483.788,247.158 481.636,247.932C477.169,249.538 477.253,249.617 455.558,258.646Z" style="fill:rgb(61,70,84);"/>
            <path d="M451.266,139.015C450.172,150.373 450.112,150.248 449.883,154.473C440.717,158.904 327.996,202.015 318.237,203.394C325.938,185.486 328.34,186.774 346.527,179.575C358.563,174.811 423.419,149.428 451.266,139.015Z" style="fill:rgb(168,190,213);"/>
            <path d="M449.883,154.473C450.05,158.481 450.218,162.489 450.386,166.498C436.498,173.825 331.715,210.528 315.309,217.491C316.628,210.386 316.417,210.54 318.237,203.394C327.996,202.015 440.717,158.904 449.883,154.473Z" style="fill:rgb(206,219,238);"/>
            <path d="M656.817,97.53C656.153,100.24 649.843,125.979 638.439,127.171C634.907,127.541 621.308,116.328 630.94,84.618C642.457,46.706 642.592,42.855 644.367,45.635C658.274,67.416 657.024,93.266 656.817,97.53Z" style="fill:rgb(169,70,32);"/>
            <path d="M499.599,350.593C504.537,370.973 532.325,391.901 536.348,392.824C537.1,392.997 537.024,390.83 537.777,391.002C538.115,391.145 541.914,394.055 530.635,395.18C495.184,398.715 489.087,401.957 469.395,362.562C467.206,358.182 484.169,357.471 499.599,350.593Z" style="fill:rgb(71,83,98);"/>
            <path d="M259.869,273.386C263.805,287.139 264.221,286.984 271.901,297.196C251.06,313.545 224.041,310.871 221.415,309.679C217.563,307.932 209.987,296.824 259.869,273.386Z" style="fill:rgb(254,228,104);"/>
            <path d="M264.043,254.411C265.482,249.794 265.097,242.027 280.849,229.964C281.369,229.566 288.812,223.866 288.659,227.485C288.032,242.271 285.684,245.964 295.646,272.453C287,277.362 271.194,283.071 269.015,283.858C264.289,272.128 264.076,272.243 263.33,259.495C281.753,254.263 281.78,254.658 283.37,253.371C289.736,248.215 270.391,257.163 264.043,254.411Z" style="fill:rgb(31,147,237);"/>
            <path d="M270.646,447.156C274.139,446.965 273.951,446.93 277.509,446.779C277.938,446.761 283.847,446.511 282.585,448.544C266.274,474.814 221.23,507.054 217.741,516.598C214.395,525.75 219.273,529.521 219.457,529.775C212.257,529.654 211.942,530.651 209.441,528.573C195.246,516.777 232.208,488.93 236.248,485.226C240.568,481.266 272.049,449.755 270.646,447.156Z" style="fill:rgb(148,76,35);"/>
            <path d="M458.634,149.522L459.5,149.71C499.512,136.449 527.247,122.349 547.154,146.681C553.679,154.657 535.025,137.172 500.386,148.157C473.878,156.563 462.284,162.119 459.103,163.643C458.457,156.403 458.329,156.61 458.634,149.522Z" style="fill:rgb(207,221,239);"/>
            <path d="M585.381,189.407C581.112,194.416 582.046,196.097 575.544,196.855C571.471,197.33 566.866,201.764 565.787,200.235C543.921,169.224 560.124,151.475 578.318,165.744C585.294,171.217 591.504,180.824 589.694,183.619C589.694,183.619 585.726,188.944 585.381,189.407Z" style="fill:rgb(37,151,247);"/>
            <path d="M295.646,272.453C302.968,286.331 301.687,287.177 312.836,298.15C317.524,302.764 310.692,303.002 308.525,303.604C284.771,310.207 270.828,286.891 269.015,283.858C271.194,283.071 287,277.362 295.646,272.453Z" style="fill:rgb(23,112,214);"/>
            <path d="M310.463,219.495C310.432,240.473 310.416,240.55 316.851,260.419C308.166,264.56 307.68,263.096 299.137,267.774C290.433,246.772 293.146,231.711 293.974,224.548C301.779,221.917 301.409,221.452 309.5,219.092L310.463,219.495Z" style="fill:rgb(168,190,213);"/>
            <path d="M316.851,260.419C326.79,281.99 328.652,280.746 337.092,290.763C337.313,291.025 328.103,306.538 312.803,290.211C305.799,282.737 299.992,269.694 299.137,267.774C307.68,263.096 308.166,264.56 316.851,260.419Z" style="fill:rgb(128,150,175);"/>
            <path d="M437.531,123.468C438.475,126.637 436.549,125.816 431.479,125.641C413.289,125.013 264.752,129.635 259.98,124.49C260.389,124.174 260.285,124.295 260.743,123.902C261.456,123.288 261.558,123.733 272.504,123.519C424.359,120.553 424.383,124.655 437.531,123.468Z" style="fill:rgb(103,210,255);"/>
            <path d="M272.427,359.557C270.921,361.766 270.578,361.124 260.561,364.636C251.246,367.901 237.084,372.866 142.579,400.755C95.04,414.784 93.93,416.605 91.273,413.319C105.072,407.938 260.758,359.903 272.427,359.557Z" style="fill:rgb(125,219,254);"/>
            <path d="M233.505,179.377C293.619,179.108 293.607,181.709 303.626,180.618C303.868,180.592 304.813,178.93 307.593,179.291C307.852,179.324 313.768,182.444 306.483,182.357C298.884,182.266 299.027,183.757 211.498,183.61C207.328,183.603 110.908,183.442 159.48,180.306C176.693,179.195 227.583,179.358 233.505,179.377Z" style="fill:rgb(103,211,254);"/>
            <path d="M455.452,137.139C457.656,139.277 456.485,139.634 455.938,142.577C452.246,162.443 457.375,196.549 486.028,230.906C488.879,234.324 485.892,234.092 481.762,235.923C466.928,213.364 463.054,205.229 461.711,202.408C452.533,181.836 453.163,181.673 450.386,166.498C450.218,162.489 450.05,158.481 449.883,154.473C450.112,150.248 450.172,150.373 451.266,139.015L455.452,137.139Z" style="fill:rgb(23,124,232);"/>
            <path d="M462.799,350.371C461.462,346.635 458.764,344.579 465.662,341.977C478.908,336.983 491.204,333.019 493.444,332.297C494.478,331.964 495.375,332.039 499.324,344.541C500.172,347.226 498.268,346.418 475.461,354.403C471.407,355.822 467.889,361.797 462.799,350.371Z" style="fill:rgb(74,87,103);"/>
            <path d="M141.532,299.416C139.629,301.85 140.018,302.943 113.441,312.351C88.512,321.175 88.656,320.996 63.507,328.522C62.832,328.724 29.479,338.705 54.717,328.986C73.941,321.583 96.063,310.826 141.532,299.416Z" style="fill:rgb(118,218,255);"/>
            <path d="M196.449,160.834C202.704,164.564 203.405,160.501 287.469,161.901C311.634,162.304 312.184,162.115 314.408,164.996C305.229,165.218 195.977,164.287 193.539,164.759C192.544,161.808 193.56,161.802 196.449,160.834Z" style="fill:rgb(101,210,255);"/>
            <path d="M663.661,363.848C736.202,367.315 738.606,364.11 777.539,391.462C809.718,414.069 758.542,378.049 732.394,371.944C708.998,366.481 666.616,366.96 663.659,365.287C663.241,365.051 664.078,364.084 663.661,363.848Z" style="fill:rgb(192,104,43);"/>
            <path d="M230.77,396.214C230.407,398.08 229.766,397.728 211.602,403.773C205.713,405.733 145.582,425.746 137.46,426.641C143.285,421.571 204.6,401.479 230.77,396.214Z" style="fill:rgb(125,219,254);"/>
            <path d="M121.711,255.363C127.937,252.06 128.216,252.849 158.517,251.88C199.03,250.584 248.368,252.768 211.473,254.242C200.781,254.67 122.246,255.525 121.711,255.363Z" style="fill:rgb(106,212,255);"/>
            <path d="M207.422,548.384C275.73,508.418 169.916,578.985 163.504,580.534C153.686,582.908 187.091,562.039 207.422,548.384Z" style="fill:rgb(141,226,254);"/>
            <path d="M517.612,455.376C517.525,455.994 517.439,456.613 517.352,457.231C435.676,458.939 426.44,458.284 432.733,455.785C434.968,454.898 499.478,453.409 517.612,455.376Z" style="fill:rgb(125,219,254);"/>
            <path d="M504.5,444.465C502.728,444.473 385.658,444.687 482.515,441.772C531.982,440.283 537.045,442.596 533.312,444.214C532.949,444.371 506.805,444.458 504.5,444.465Z" style="fill:rgb(127,220,254);"/>
            <path d="M705.564,451.605C699.882,451.875 635.007,454.966 634.465,452.506C633.876,449.837 635.903,450.379 668.516,449.764C703.273,449.108 703.857,449.177 705.564,451.605Z" style="fill:rgb(123,218,255);"/>
            <path d="M312.088,206.44C311.546,210.792 311.005,215.143 310.463,219.495L309.5,219.092C301.409,221.452 301.779,221.917 293.974,224.548C296.395,216.574 296.154,216.626 300.012,209.189L301.5,210.636C306.787,208.517 306.654,208.517 312.088,206.44Z" style="fill:rgb(206,219,237);"/>
            <path d="M720.582,119.065C721.819,119.477 736.019,124.208 731.262,131.372C729.04,134.716 707.893,122.593 708.559,121.536C710.44,118.553 719.602,119.015 720.582,119.065Z" style="fill:rgb(198,103,41);"/>
            <path d="M660.279,331.174C666.147,333.681 663.075,335.54 660.145,341.344C659.382,342.856 654.432,352.663 647.1,358.009C644.245,360.09 637.844,363.197 637.675,363.113C634.515,361.518 642.521,363.01 660.279,331.174Z" style="fill:rgb(51,59,71);"/>
            <path d="M499.599,350.593C504.764,348.49 505.812,367.001 528.818,385.08C529.494,385.61 529.482,385.518 537.777,391.002C537.024,390.83 537.1,392.997 536.348,392.824C532.325,391.901 504.537,370.973 499.599,350.593Z" style="fill:rgb(100,118,137);"/>
            <path d="M312.088,206.44C306.654,208.517 306.787,208.517 301.5,210.636L300.012,209.189C301.009,207.551 307.81,196.383 316.604,191.896C316.737,191.828 319.47,190.56 317.53,193.51C313.559,199.549 314.17,199.663 312.088,206.44Z" style="fill:rgb(170,192,215);"/>
            <path d="M145.743,517.108C142.714,514.709 142.688,514.771 142.472,514.517C140.452,512.146 143.376,513.619 146.461,513.847C156.866,514.613 164.042,507.212 165.444,506.348C170.414,503.288 161.107,523.366 145.743,517.108Z" style="fill:rgb(43,47,59);"/>
            <path d="M822.562,170.512C818.555,179.014 809.743,173.732 814.955,165.861C816.801,163.074 822.576,162.718 822.562,170.512Z" style="fill:rgb(29,32,39);"/>
            <path d="M830.5,153.655C830.506,153.666 832.461,154.94 830.395,155.2C829.944,155.257 809.308,156.525 807.474,156.637C802.228,156.96 808.56,149.694 830.5,153.655Z" style="fill:rgb(53,61,75);"/>
            <path d="M829.917,184.623C825.701,195.025 826.442,195.497 818.652,203.639C817.245,200.053 818.959,200.329 822.162,195.292C826.426,188.588 822.395,182.455 829.917,184.623Z" style="fill:rgb(198,98,38);"/>
            <path d="M264.043,254.411C270.391,257.163 289.736,248.215 283.37,253.371C281.78,254.658 281.753,254.263 263.33,259.495L264.043,254.411Z" style="fill:rgb(58,177,251);"/>
        </g>
        <g id="eye" transform="matrix(0.716898,0,0,0.729671,-1415.766511,-123.814212)">
            <circle cx="744.577" cy="421.221" r="18.01" style="fill:rgb(30,24,24);"/>
        </g>
        <g id="Collar" transform="matrix(1.718034,0.828737,-0.814229,1.748645,-1159.885525,-272.827291)">
            <path d="M193.487,245.569C223.21,252.066 230.794,246.426 230.028,259.476C229.583,267.059 229.074,267.166 228.449,267.297C225.247,267.97 200.684,266.595 187.591,263.038C183.229,261.853 153.278,253.716 136.875,238.132C133.425,234.855 137.823,218.075 141.979,220.149C143.727,221.022 155.326,236.458 193.487,245.569Z" style="fill:rgb(140,5,16);"/>
            <path d="M243.536,249.86C249.133,248.89 249.949,248.87 250.511,248.833C255.152,248.532 252.448,256.794 250.62,262.031C249.068,266.478 247.074,266.816 243.533,266.8C240.66,266.787 237.581,267.628 238.167,264.816C240.597,253.168 237.161,250.84 240.582,249.984C241.538,249.745 242.58,250.099 243.536,249.86Z" style="fill:rgb(140,5,16);"/>
        </g>
        <g id="tag" transform="matrix(0.544044,0.262433,-0.257839,0.553738,-1162.747573,-280.989)">
            <g transform="matrix(0.93642,-0,0,0.93642,57.639762,48.176341)">
                <circle cx="726.569" cy="932.052" r="51.569" style="fill:rgb(145,145,145);"/>
                <path d="M726.569,880.483C755.03,880.483 778.138,903.59 778.138,932.052C778.138,960.513 755.03,983.62 726.569,983.62C698.107,983.62 675,960.513 675,932.052C675,903.59 698.107,880.483 726.569,880.483ZM726.569,886.659C701.516,886.659 681.176,906.999 681.176,932.052C681.176,957.104 701.516,977.444 726.569,977.444C751.622,977.444 771.961,957.104 771.961,932.052C771.961,906.999 751.622,886.659 726.569,886.659Z" style="fill:rgb(95,95,95);"/>
            </g>
        </g>
        <g transform="matrix(0.62196,-0,0,0.541879,-2626.116086,3.450946)">
            <g transform="matrix(1.309195,0.409814,-0.302262,1.317836,-573.506061,-1324.657168)">
                <g transform="matrix(1,0,0,1,25,9.345884)">
                    <path d="M2577.123,766.792L2576.139,766.792C2575.564,766.792 2574.922,766.823 2574.211,766.887C2573.764,766.93 2573.454,766.951 2573.281,766.951C2572.67,766.951 2572.174,766.786 2571.791,766.456C2571.408,766.126 2571.217,765.695 2571.217,765.162C2571.217,764.79 2571.301,764.5 2571.47,764.292C2571.638,764.084 2571.914,763.917 2572.297,763.789C2572.661,763.682 2572.907,763.509 2573.035,763.27C2573.163,763.03 2573.263,762.564 2573.336,761.872C2573.409,761.074 2573.475,759.519 2573.534,757.208C2573.593,754.898 2573.623,752.603 2573.623,750.324C2573.623,749.43 2573.564,748.834 2573.445,748.536C2573.327,748.237 2573.049,747.998 2572.611,747.817C2571.982,747.54 2571.668,747.066 2571.668,746.395C2571.668,745.874 2571.884,745.466 2572.317,745.173C2572.75,744.881 2573.354,744.734 2574.129,744.734C2574.384,744.734 2574.685,744.74 2575.031,744.75C2575.797,744.782 2576.353,744.798 2576.699,744.798C2578.002,744.798 2579.474,744.75 2581.115,744.654C2581.461,744.633 2581.894,744.622 2582.414,744.622C2584.501,744.622 2586.151,744.899 2587.363,745.453C2589.168,746.284 2590.526,747.678 2591.437,749.638C2592.249,751.363 2592.654,753.418 2592.654,755.803C2592.654,757.006 2592.504,758.212 2592.203,759.42C2591.902,760.629 2591.497,761.675 2590.986,762.559C2589.929,764.348 2588.471,765.604 2586.611,766.328C2585.517,766.754 2584.351,766.967 2583.111,766.967L2581.457,766.903L2580.035,766.855C2578.932,766.813 2577.961,766.792 2577.123,766.792ZM2579.994,749.478L2579.994,761.84C2579.994,762.511 2580.117,762.988 2580.363,763.27C2580.609,763.552 2581.019,763.693 2581.594,763.693C2584.255,763.693 2585.586,761.329 2585.586,756.601C2585.586,753.993 2585.276,751.97 2584.656,750.532C2583.972,748.946 2582.815,748.152 2581.183,748.152C2580.746,748.152 2580.438,748.253 2580.261,748.456C2580.083,748.658 2579.994,748.999 2579.994,749.478Z" style="fill:rgb(95,95,95);fill-rule:nonzero;"/>
                </g>
                <g transform="matrix(1,0,0,1,25,9.345884)">
                    <path d="M2601.267,766.776L2599.435,766.792C2598.15,766.813 2597.211,766.845 2596.619,766.887C2596.09,766.941 2595.712,766.967 2595.484,766.967C2594.928,766.967 2594.486,766.802 2594.158,766.472C2593.839,766.142 2593.68,765.748 2593.68,765.29C2593.68,764.992 2593.739,764.758 2593.857,764.587C2593.976,764.417 2594.263,764.151 2594.719,763.789C2594.983,763.576 2595.165,763.243 2595.265,762.791C2595.366,762.338 2595.475,761.366 2595.594,759.876C2595.767,757.554 2595.853,754.695 2595.853,751.299C2595.853,750.053 2595.783,749.225 2595.641,748.815C2595.5,748.405 2595.17,748.067 2594.65,747.801C2594.049,747.503 2593.748,747.066 2593.748,746.491C2593.748,746.023 2593.928,745.639 2594.288,745.341C2594.648,745.043 2595.111,744.894 2595.676,744.894C2595.986,744.894 2596.382,744.91 2596.865,744.942C2597.667,744.984 2598.533,745.006 2599.463,745.006C2600.146,745.006 2601.491,744.974 2603.496,744.91C2604.125,744.889 2604.694,744.878 2605.205,744.878C2606.417,744.878 2607.395,744.992 2608.138,745.221C2608.88,745.45 2609.525,745.836 2610.072,746.379C2610.965,747.263 2611.412,748.445 2611.412,749.925C2611.412,750.66 2611.28,751.376 2611.015,752.073C2610.751,752.771 2610.396,753.327 2609.949,753.742C2609.63,754.041 2609.471,754.312 2609.471,754.557C2609.471,754.823 2609.662,755.047 2610.045,755.228C2610.792,755.579 2611.471,756.17 2612.082,757.001C2612.711,757.863 2613.025,758.944 2613.025,760.243C2613.025,761.776 2612.547,763.177 2611.59,764.444C2610.323,766.115 2608.45,766.951 2605.971,766.951C2605.633,766.951 2604.804,766.925 2603.482,766.871C2602.279,766.818 2601.541,766.786 2601.267,766.776ZM2602.211,749.446L2602.211,752.736C2602.211,753.258 2602.268,753.625 2602.382,753.838C2602.496,754.051 2602.694,754.158 2602.976,754.158C2603.651,754.158 2604.148,753.915 2604.467,753.431C2604.786,752.947 2604.945,752.188 2604.945,751.155C2604.945,750.154 2604.781,749.379 2604.453,748.831C2604.125,748.283 2603.66,748.009 2603.058,748.009C2602.739,748.009 2602.518,748.112 2602.395,748.32C2602.272,748.528 2602.211,748.903 2602.211,749.446ZM2602.211,758.646L2602.211,760.163C2602.211,761.558 2602.297,762.484 2602.471,762.942C2602.644,763.4 2602.995,763.629 2603.523,763.629C2604.909,763.629 2605.601,762.681 2605.601,760.786C2605.601,758.422 2604.827,757.24 2603.277,757.24C2602.876,757.24 2602.598,757.341 2602.443,757.544C2602.288,757.746 2602.211,758.113 2602.211,758.646Z" style="fill:rgb(95,95,95);fill-rule:nonzero;"/>
                </g>
                <g transform="matrix(1,0,0,1,-20,35.047064)">
                    <path d="M2627.476,760.179L2625.836,764.476C2625.553,765.2 2625.325,765.687 2625.152,765.937C2624.979,766.187 2624.788,766.312 2624.578,766.312C2624.377,766.312 2624.2,766.211 2624.045,766.009C2623.944,765.881 2623.714,765.413 2623.354,764.603C2622.994,763.794 2622.696,763.075 2622.459,762.447L2620.654,757.703C2620.408,757.043 2620.148,756.713 2619.875,756.713C2619.583,756.713 2619.424,756.995 2619.396,757.56C2619.333,758.816 2619.301,759.977 2619.301,761.042C2619.301,762.149 2619.346,762.9 2619.437,763.294C2619.501,763.528 2619.585,763.698 2619.69,763.805C2619.795,763.911 2620.08,764.103 2620.545,764.38C2620.846,764.561 2620.996,764.875 2620.996,765.322C2620.996,766.515 2619.688,767.111 2617.072,767.111C2614.866,767.111 2613.764,766.531 2613.764,765.37C2613.764,765.072 2613.82,764.856 2613.934,764.723C2614.048,764.59 2614.342,764.39 2614.816,764.124C2615.117,763.965 2615.32,763.746 2615.425,763.469C2615.529,763.193 2615.618,762.655 2615.691,761.856C2615.773,761.004 2615.851,759.607 2615.924,757.664C2615.997,755.72 2616.033,754.057 2616.033,752.672C2616.033,750.937 2615.919,749.76 2615.691,749.143C2615.609,748.93 2615.516,748.77 2615.411,748.663C2615.306,748.557 2615.108,748.418 2614.816,748.248C2614.169,747.886 2613.846,747.418 2613.846,746.843C2613.846,746.47 2613.966,746.129 2614.208,745.82C2614.449,745.512 2614.771,745.293 2615.172,745.165C2615.573,745.027 2616.108,744.907 2616.778,744.806C2617.448,744.705 2618.015,744.654 2618.48,744.654C2619.647,744.654 2620.472,744.766 2620.955,744.99C2621.192,745.096 2621.379,745.24 2621.515,745.421C2621.652,745.602 2621.848,745.975 2622.103,746.539L2624.947,752.656C2625.257,753.327 2625.471,753.737 2625.59,753.886C2625.708,754.035 2625.872,754.11 2626.082,754.11C2626.264,754.11 2626.426,754.03 2626.567,753.87C2626.708,753.711 2626.875,753.412 2627.066,752.976L2628.994,748.584C2629.231,748.019 2629.386,747.652 2629.459,747.481C2629.905,746.417 2630.347,745.709 2630.785,745.357C2631.341,744.899 2632.353,744.67 2633.82,744.67C2636.4,744.67 2637.689,745.357 2637.689,746.731C2637.689,747.04 2637.639,747.287 2637.539,747.473C2637.439,747.66 2637.234,747.886 2636.924,748.152C2636.504,748.525 2636.24,749.063 2636.131,749.765C2635.921,751.235 2635.816,753.024 2635.816,755.132C2635.816,757.847 2635.926,760.227 2636.144,762.271C2636.199,762.772 2636.283,763.113 2636.397,763.294C2636.511,763.475 2636.805,763.746 2637.279,764.108C2637.607,764.364 2637.771,764.705 2637.771,765.13C2637.771,765.876 2637.347,766.403 2636.5,766.712C2636.062,766.882 2635.602,766.994 2635.119,767.047C2634.636,767.1 2633.893,767.127 2632.89,767.127C2631.35,767.127 2630.202,766.999 2629.445,766.744C2628.607,766.456 2628.187,765.966 2628.187,765.274C2628.187,765.019 2628.242,764.808 2628.351,764.643C2628.461,764.478 2628.743,764.177 2629.199,763.741C2629.436,763.517 2629.598,763.086 2629.684,762.447C2629.771,761.808 2629.814,760.722 2629.814,759.189C2629.814,758.337 2629.78,757.778 2629.712,757.512C2629.643,757.246 2629.5,757.113 2629.281,757.113C2629.026,757.113 2628.78,757.318 2628.543,757.727C2628.306,758.137 2627.95,758.955 2627.476,760.179Z" style="fill:rgb(95,95,95);fill-rule:nonzero;"/>
                </g>
                <g transform="matrix(1,0,0,1,-20,35.047064)">
                    <path d="M2646.207,745.756L2653.015,752.72C2653.653,753.37 2654.114,753.695 2654.396,753.695C2654.87,753.695 2655.107,753.104 2655.107,751.922C2655.107,750.58 2655.039,749.664 2654.902,749.174C2654.765,748.685 2654.478,748.317 2654.041,748.072C2653.685,747.87 2653.435,747.654 2653.289,747.426C2653.143,747.197 2653.07,746.901 2653.07,746.539C2653.07,745.645 2653.594,745.07 2654.642,744.814C2655.071,744.708 2655.818,744.654 2656.885,744.654C2658.261,744.654 2659.213,744.75 2659.742,744.942C2660.581,745.24 2661,745.804 2661,746.635C2661,747.327 2660.658,747.849 2659.974,748.2C2659.701,748.339 2659.514,748.461 2659.414,748.568C2659.314,748.674 2659.227,748.834 2659.154,749.047C2658.908,749.749 2658.78,751.08 2658.771,753.04L2658.771,758.247C2658.771,759.045 2658.776,760.137 2658.785,761.521C2658.794,763.395 2658.698,764.747 2658.498,765.578C2658.252,766.611 2657.805,767.127 2657.158,767.127C2656.875,767.127 2656.632,767.058 2656.427,766.919C2656.222,766.781 2655.882,766.461 2655.408,765.961L2647.301,757.48C2646.736,756.884 2646.266,756.585 2645.892,756.585C2645.336,756.585 2645.058,757.485 2645.058,759.285C2645.058,760.765 2645.129,761.776 2645.27,762.319C2645.412,762.862 2645.701,763.262 2646.139,763.517C2646.749,763.869 2647.055,764.327 2647.055,764.891C2647.055,766.371 2645.692,767.111 2642.967,767.111C2641.736,767.111 2640.781,766.922 2640.102,766.544C2639.423,766.166 2639.084,765.631 2639.084,764.939C2639.084,764.577 2639.148,764.305 2639.275,764.124C2639.403,763.943 2639.69,763.698 2640.137,763.39C2640.565,763.091 2640.825,762.564 2640.916,761.808C2641.071,760.435 2641.148,758.46 2641.148,755.883C2641.148,753.136 2641.012,751.134 2640.738,749.877C2640.638,749.419 2640.51,749.079 2640.355,748.855C2640.2,748.631 2639.945,748.418 2639.59,748.216C2639.18,747.982 2638.895,747.753 2638.735,747.529C2638.576,747.306 2638.496,747.034 2638.496,746.715C2638.496,745.693 2639.248,745.048 2640.752,744.782C2641.262,744.697 2642.155,744.654 2643.431,744.654C2644.161,744.654 2644.692,744.721 2645.024,744.854C2645.357,744.987 2645.751,745.288 2646.207,745.756Z" style="fill:rgb(95,95,95);fill-rule:nonzero;"/>
                </g>
            </g>
        </g>
    </g>
</svg>
