<?xml version="1.0" encoding="UTF-8" standalone="no"?>
<!DOCTYPE svg PUBLIC "-//W3C//DTD SVG 1.1//EN" "http://www.w3.org/Graphics/SVG/1.1/DTD/svg11.dtd">
<svg width="100%" height="100%" viewBox="0 0 719 900" version="1.1" xmlns="http://www.w3.org/2000/svg" xmlns:xlink="http://www.w3.org/1999/xlink" xml:space="preserve" xmlns:serif="http://www.serif.com/" style="fill-rule:evenodd;clip-rule:evenodd;stroke-linejoin:round;stroke-miterlimit:2;">
    <g transform="matrix(1,0,0,1,-2236.415849,21.941658)">
        <g>
            <g id="dobermann" transform="matrix(3.157895,0,0,3.157895,1867.421482,-137.449442)">
                <g id="main" transform="matrix(1,0,0,1,0.521543,0)">
                    <path d="M226.5,93.931C227.306,93.93 236.222,93.916 236.579,93.835C240.317,92.99 254.586,46.622 259.494,44.489C272.791,38.71 265.842,97.048 271.744,101.135C295.38,117.502 294.96,120.169 293.502,137.5C293.146,141.728 317.375,148.201 331.552,154.383C349.97,162.414 342.751,168.082 340.984,178.54C335.967,208.245 321.438,207.127 317.864,211.766C303.391,230.552 287.737,222.168 268.5,221.515C256.867,221.12 256.806,228.028 255.923,239.694C255.766,241.779 259.392,243.565 259.421,248.53C259.512,264.166 256.064,264.364 255.021,270.131C252.158,285.965 251.825,301.2 237.622,317.677C222.757,334.922 113.327,286.766 116.39,273.473C120.925,253.793 129.418,247.082 126.899,239.374C125.362,234.669 131.981,218.238 134.959,214.939C138.87,210.606 138.405,210.321 141.438,201.477C160.138,146.958 166.082,136.658 165.312,133.542C156.258,96.853 166.527,97.189 190.415,40.463C197.426,23.815 210.596,65.882 211.679,68.673C219.019,87.574 221.836,93.842 226.5,93.931Z" style="fill:rgb(39,34,38);"/>
                    <path d="M226.5,93.931C227.306,93.93 236.222,93.916 236.579,93.835C240.317,92.99 254.586,46.622 259.494,44.489C272.791,38.71 265.842,97.048 271.744,101.135C295.38,117.502 294.96,120.169 293.502,137.5C293.146,141.728 317.375,148.201 331.552,154.383C349.97,162.414 342.751,168.082 340.984,178.54C335.967,208.245 321.438,207.127 317.864,211.766C303.391,230.552 287.737,222.168 268.5,221.515C256.867,221.12 256.806,228.028 255.923,239.694C255.766,241.779 259.392,243.565 259.421,248.53C259.512,264.166 256.064,264.364 255.021,270.131C252.158,285.965 251.825,301.2 237.622,317.677C222.757,334.922 113.327,286.766 116.39,273.473C120.925,253.793 129.418,247.082 126.899,239.374C125.362,234.669 131.981,218.238 134.959,214.939C138.87,210.606 138.405,210.321 141.438,201.477C160.138,146.958 166.082,136.658 165.312,133.542C156.258,96.853 166.527,97.189 190.415,40.463C197.426,23.815 210.596,65.882 211.679,68.673C219.019,87.574 221.836,93.842 226.5,93.931ZM119.294,274.057C119.324,274.147 119.453,274.527 119.585,274.762C120.054,275.589 120.832,276.483 121.845,277.46C125.486,280.973 131.886,285.172 139.843,289.548C161.989,301.727 196.06,315.074 218.039,317.88C222.506,318.45 226.446,318.584 229.635,318.13C232.19,317.767 234.208,317.102 235.379,315.743C249.147,299.771 249.332,284.953 252.107,269.604C252.47,267.594 253.07,266.161 253.75,264.657C255.018,261.853 256.519,258.707 256.46,248.547C256.444,245.842 254.913,244.411 254.124,243.202C253.279,241.908 252.879,240.687 252.971,239.47C253.363,234.281 253.648,229.987 254.706,226.775C255.603,224.054 257.024,221.993 259.211,220.577C261.346,219.195 264.322,218.41 268.6,218.556C276.338,218.818 283.5,220.319 290.239,220.823C299.36,221.506 307.639,220.186 315.518,209.959C316.452,208.747 317.902,207.76 319.767,206.767C322.383,205.375 326.034,203.797 329.46,199.804C332.964,195.72 336.185,189.176 338.065,178.047C338.612,174.804 339.655,172.002 340.35,169.45C340.84,167.65 341.215,166.027 340.584,164.433C339.604,161.958 336.627,159.826 330.369,157.097C318.901,152.097 300.946,146.866 294.4,142.802C293.027,141.949 292.053,141.085 291.484,140.309C290.717,139.265 290.47,138.218 290.551,137.252C291.093,130.811 291.581,126.548 290.445,122.781C289.656,120.163 288.016,117.843 285.105,115.08C281.802,111.945 276.983,108.365 270.059,103.57C269.325,103.062 268.595,102.198 268.046,100.899C267.317,99.173 266.795,96.322 266.471,92.747C265.515,82.213 265.986,64.671 263.978,53.949C263.547,51.647 263.018,49.695 262.279,48.288C261.971,47.703 261.753,47.177 261.294,47.053C261.173,47.021 261.048,47.051 260.911,47.104C260.666,47.469 259.135,49.783 258.022,52.125C254.138,60.297 249.02,74.539 244.988,84.334C242.847,89.533 240.923,93.544 239.647,95.093C238.786,96.139 237.885,96.576 237.232,96.723C236.851,96.809 227.363,96.891 226.505,96.892L226.443,96.891C223.769,96.84 221.36,95.611 218.948,92.132C216.351,88.387 213.451,81.416 208.919,69.745C208.281,68.102 203.405,52.572 198.095,43.95C197.222,42.533 196.35,41.318 195.475,40.443C195.183,40.151 194.898,39.902 194.61,39.717C194.547,39.677 194.458,39.632 194.384,39.597C194.165,39.873 193.521,40.718 193.144,41.612C183.57,64.348 176.181,77.936 171.34,88.409C164.397,103.426 162.984,111.747 168.187,132.832C168.484,134.034 168.287,136.124 166.821,140.273C164.16,147.801 157.323,164.29 144.239,202.438C140.966,211.983 141.379,212.247 137.157,216.923C135.511,218.747 132.759,224.972 131.046,230.559C130.366,232.774 129.855,234.893 129.687,236.607C129.612,237.363 129.566,238 129.714,238.455C130.936,242.194 130.208,245.763 128.319,250.199C126.033,255.564 121.962,262.533 119.294,274.057Z" style="fill:rgb(202,185,174);"/>
                </g>
                <path d="M295.541,201.979C292.121,202.287 267.988,204.454 253.734,192.233C252.635,191.29 248.33,182.638 243.697,189.627C235.905,201.381 277.214,210.569 291.515,209.719C305.37,208.894 319.449,199.804 310.073,210.056C300.229,220.819 283.287,214.268 264.526,213.005C236.239,211.102 229.097,201.5 214.224,189.855C190.084,170.953 213.142,153.166 219.204,161.7C226.009,171.282 227.931,175.577 248.295,166.002C249.35,165.505 272.509,152.059 302.387,162.806C305.136,163.795 301.692,174.154 313.725,181.126C318.47,183.875 322.766,182.475 320.008,187.193C313.598,198.158 297.779,201.506 295.541,201.979Z" style="fill:rgb(183,95,40);"/>
                <g id="Collar">
                    <path d="M193.487,245.569C223.21,252.066 230.794,246.426 230.028,259.476C229.583,267.059 229.074,267.166 228.449,267.297C225.247,267.97 200.684,266.595 187.591,263.038C183.229,261.853 153.278,253.716 136.875,238.132C133.425,234.855 140.537,220.386 141.467,220.332C143.417,220.22 155.326,236.458 193.487,245.569Z" style="fill:rgb(140,5,16);"/>
                    <path d="M243.536,249.86C249.133,248.89 249.948,248.857 250.511,248.833C253.513,248.71 252.452,255.96 252.09,261.495C251.703,267.412 249.444,266.034 243.533,266.8C240.684,267.169 239.436,267.274 240.023,264.462C242.453,252.813 237.161,250.84 240.582,249.984C241.538,249.745 242.58,250.099 243.536,249.86Z" style="fill:rgb(140,5,16);"/>
                </g>
                <path id="Ear" d="M198.044,72.54C198.818,81.244 206.141,112.149 182.292,126.111C175.813,129.904 169.213,115.275 174.48,97.494C177.048,88.826 186.964,71.763 191.446,59.478C195.142,49.35 197.497,69.543 198.044,72.54Z" style="fill:rgb(169,70,32);"/>
                <path d="M246.593,124.363C244.262,123.092 242.098,122.165 242.893,120.666C247.227,112.496 262.358,120.564 259.568,127.525C256.995,133.944 250.324,127.181 246.593,124.363Z" style="fill:rgb(183,96,40);"/>
                <path d="M330.628,183.949C331.261,183.835 331.863,183.58 332.495,183.467C338.804,182.332 324.055,204.469 320.915,201.114C317.895,197.889 321.768,195.326 323.463,193.468C328.629,187.805 326.814,186.213 330.628,183.949Z" style="fill:rgb(170,78,36);"/>
                <path d="M280.132,128.567C280.112,128.174 279.942,124.813 280.772,123.691C285.337,117.519 286.708,128.363 286.758,129.488C286.857,131.744 283.109,137.878 280.132,128.567Z" style="fill:rgb(174,85,38);"/>
                <g>
                    <path id="nose" d="M327.494,163.233C326.281,163.279 307.308,164.003 312.433,161.434C319.297,157.994 348.397,163.35 327.494,163.233Z" style="fill:rgb(147,143,138);"/>
                    <g id="eye" transform="matrix(0.351421,0,0,0.351421,-18.897143,-10.763746)">
                        <circle cx="744.577" cy="421.221" r="18.01" style="fill:rgb(30,24,24);"/>
                    </g>
                </g>
                <g id="tag" transform="matrix(0.316667,0,0,0.316667,-3.166667,-3.166667)">
                    <g transform="matrix(0.93642,-0,0,0.93642,57.639762,48.176341)">
                        <circle cx="726.569" cy="932.052" r="51.569" style="fill:rgb(145,145,145);"/>
                        <path d="M726.569,880.483C755.03,880.483 778.138,903.59 778.138,932.052C778.138,960.513 755.03,983.62 726.569,983.62C698.107,983.62 675,960.513 675,932.052C675,903.59 698.107,880.483 726.569,880.483ZM726.569,886.659C701.516,886.659 681.176,906.999 681.176,932.052C681.176,957.104 701.516,977.444 726.569,977.444C751.622,977.444 771.961,957.104 771.961,932.052C771.961,906.999 751.622,886.659 726.569,886.659Z" style="fill:rgb(95,95,95);"/>
                    </g>
                </g>
            </g>
            <g transform="matrix(1,-0,0,0.855992,-20.791175,110.296989)">
                <g transform="matrix(1.309195,0.409814,-0.302262,1.317836,-573.506061,-1324.657168)">
                    <g transform="matrix(1,0,0,1,25,9.345884)">
                        <path d="M2577.123,766.792L2576.139,766.792C2575.564,766.792 2574.922,766.823 2574.211,766.887C2573.764,766.93 2573.454,766.951 2573.281,766.951C2572.67,766.951 2572.174,766.786 2571.791,766.456C2571.408,766.126 2571.217,765.695 2571.217,765.162C2571.217,764.79 2571.301,764.5 2571.47,764.292C2571.638,764.084 2571.914,763.917 2572.297,763.789C2572.661,763.682 2572.907,763.509 2573.035,763.27C2573.163,763.03 2573.263,762.564 2573.336,761.872C2573.409,761.074 2573.475,759.519 2573.534,757.208C2573.593,754.898 2573.623,752.603 2573.623,750.324C2573.623,749.43 2573.564,748.834 2573.445,748.536C2573.327,748.237 2573.049,747.998 2572.611,747.817C2571.982,747.54 2571.668,747.066 2571.668,746.395C2571.668,745.874 2571.884,745.466 2572.317,745.173C2572.75,744.881 2573.354,744.734 2574.129,744.734C2574.384,744.734 2574.685,744.74 2575.031,744.75C2575.797,744.782 2576.353,744.798 2576.699,744.798C2578.002,744.798 2579.474,744.75 2581.115,744.654C2581.461,744.633 2581.894,744.622 2582.414,744.622C2584.501,744.622 2586.151,744.899 2587.363,745.453C2589.168,746.284 2590.526,747.678 2591.437,749.638C2592.249,751.363 2592.654,753.418 2592.654,755.803C2592.654,757.006 2592.504,758.212 2592.203,759.42C2591.902,760.629 2591.497,761.675 2590.986,762.559C2589.929,764.348 2588.471,765.604 2586.611,766.328C2585.517,766.754 2584.351,766.967 2583.111,766.967L2581.457,766.903L2580.035,766.855C2578.932,766.813 2577.961,766.792 2577.123,766.792ZM2579.994,749.478L2579.994,761.84C2579.994,762.511 2580.117,762.988 2580.363,763.27C2580.609,763.552 2581.019,763.693 2581.594,763.693C2584.255,763.693 2585.586,761.329 2585.586,756.601C2585.586,753.993 2585.276,751.97 2584.656,750.532C2583.972,748.946 2582.815,748.152 2581.183,748.152C2580.746,748.152 2580.438,748.253 2580.261,748.456C2580.083,748.658 2579.994,748.999 2579.994,749.478Z" style="fill:rgb(95,95,95);fill-rule:nonzero;"/>
                    </g>
                    <g transform="matrix(1,0,0,1,25,9.345884)">
                        <path d="M2601.267,766.776L2599.435,766.792C2598.15,766.813 2597.211,766.845 2596.619,766.887C2596.09,766.941 2595.712,766.967 2595.484,766.967C2594.928,766.967 2594.486,766.802 2594.158,766.472C2593.839,766.142 2593.68,765.748 2593.68,765.29C2593.68,764.992 2593.739,764.758 2593.857,764.587C2593.976,764.417 2594.263,764.151 2594.719,763.789C2594.983,763.576 2595.165,763.243 2595.265,762.791C2595.366,762.338 2595.475,761.366 2595.594,759.876C2595.767,757.554 2595.853,754.695 2595.853,751.299C2595.853,750.053 2595.783,749.225 2595.641,748.815C2595.5,748.405 2595.17,748.067 2594.65,747.801C2594.049,747.503 2593.748,747.066 2593.748,746.491C2593.748,746.023 2593.928,745.639 2594.288,745.341C2594.648,745.043 2595.111,744.894 2595.676,744.894C2595.986,744.894 2596.382,744.91 2596.865,744.942C2597.667,744.984 2598.533,745.006 2599.463,745.006C2600.146,745.006 2601.491,744.974 2603.496,744.91C2604.125,744.889 2604.694,744.878 2605.205,744.878C2606.417,744.878 2607.395,744.992 2608.138,745.221C2608.88,745.45 2609.525,745.836 2610.072,746.379C2610.965,747.263 2611.412,748.445 2611.412,749.925C2611.412,750.66 2611.28,751.376 2611.015,752.073C2610.751,752.771 2610.396,753.327 2609.949,753.742C2609.63,754.041 2609.471,754.312 2609.471,754.557C2609.471,754.823 2609.662,755.047 2610.045,755.228C2610.792,755.579 2611.471,756.17 2612.082,757.001C2612.711,757.863 2613.025,758.944 2613.025,760.243C2613.025,761.776 2612.547,763.177 2611.59,764.444C2610.323,766.115 2608.45,766.951 2605.971,766.951C2605.633,766.951 2604.804,766.925 2603.482,766.871C2602.279,766.818 2601.541,766.786 2601.267,766.776ZM2602.211,749.446L2602.211,752.736C2602.211,753.258 2602.268,753.625 2602.382,753.838C2602.496,754.051 2602.694,754.158 2602.976,754.158C2603.651,754.158 2604.148,753.915 2604.467,753.431C2604.786,752.947 2604.945,752.188 2604.945,751.155C2604.945,750.154 2604.781,749.379 2604.453,748.831C2604.125,748.283 2603.66,748.009 2603.058,748.009C2602.739,748.009 2602.518,748.112 2602.395,748.32C2602.272,748.528 2602.211,748.903 2602.211,749.446ZM2602.211,758.646L2602.211,760.163C2602.211,761.558 2602.297,762.484 2602.471,762.942C2602.644,763.4 2602.995,763.629 2603.523,763.629C2604.909,763.629 2605.601,762.681 2605.601,760.786C2605.601,758.422 2604.827,757.24 2603.277,757.24C2602.876,757.24 2602.598,757.341 2602.443,757.544C2602.288,757.746 2602.211,758.113 2602.211,758.646Z" style="fill:rgb(95,95,95);fill-rule:nonzero;"/>
                    </g>
                    <g transform="matrix(1,0,0,1,-20,35.047064)">
                        <path d="M2627.476,760.179L2625.836,764.476C2625.553,765.2 2625.325,765.687 2625.152,765.937C2624.979,766.187 2624.788,766.312 2624.578,766.312C2624.377,766.312 2624.2,766.211 2624.045,766.009C2623.944,765.881 2623.714,765.413 2623.354,764.603C2622.994,763.794 2622.696,763.075 2622.459,762.447L2620.654,757.703C2620.408,757.043 2620.148,756.713 2619.875,756.713C2619.583,756.713 2619.424,756.995 2619.396,757.56C2619.333,758.816 2619.301,759.977 2619.301,761.042C2619.301,762.149 2619.346,762.9 2619.437,763.294C2619.501,763.528 2619.585,763.698 2619.69,763.805C2619.795,763.911 2620.08,764.103 2620.545,764.38C2620.846,764.561 2620.996,764.875 2620.996,765.322C2620.996,766.515 2619.688,767.111 2617.072,767.111C2614.866,767.111 2613.764,766.531 2613.764,765.37C2613.764,765.072 2613.82,764.856 2613.934,764.723C2614.048,764.59 2614.342,764.39 2614.816,764.124C2615.117,763.965 2615.32,763.746 2615.425,763.469C2615.529,763.193 2615.618,762.655 2615.691,761.856C2615.773,761.004 2615.851,759.607 2615.924,757.664C2615.997,755.72 2616.033,754.057 2616.033,752.672C2616.033,750.937 2615.919,749.76 2615.691,749.143C2615.609,748.93 2615.516,748.77 2615.411,748.663C2615.306,748.557 2615.108,748.418 2614.816,748.248C2614.169,747.886 2613.846,747.418 2613.846,746.843C2613.846,746.47 2613.966,746.129 2614.208,745.82C2614.449,745.512 2614.771,745.293 2615.172,745.165C2615.573,745.027 2616.108,744.907 2616.778,744.806C2617.448,744.705 2618.015,744.654 2618.48,744.654C2619.647,744.654 2620.472,744.766 2620.955,744.99C2621.192,745.096 2621.379,745.24 2621.515,745.421C2621.652,745.602 2621.848,745.975 2622.103,746.539L2624.947,752.656C2625.257,753.327 2625.471,753.737 2625.59,753.886C2625.708,754.035 2625.872,754.11 2626.082,754.11C2626.264,754.11 2626.426,754.03 2626.567,753.87C2626.708,753.711 2626.875,753.412 2627.066,752.976L2628.994,748.584C2629.231,748.019 2629.386,747.652 2629.459,747.481C2629.905,746.417 2630.347,745.709 2630.785,745.357C2631.341,744.899 2632.353,744.67 2633.82,744.67C2636.4,744.67 2637.689,745.357 2637.689,746.731C2637.689,747.04 2637.639,747.287 2637.539,747.473C2637.439,747.66 2637.234,747.886 2636.924,748.152C2636.504,748.525 2636.24,749.063 2636.131,749.765C2635.921,751.235 2635.816,753.024 2635.816,755.132C2635.816,757.847 2635.926,760.227 2636.144,762.271C2636.199,762.772 2636.283,763.113 2636.397,763.294C2636.511,763.475 2636.805,763.746 2637.279,764.108C2637.607,764.364 2637.771,764.705 2637.771,765.13C2637.771,765.876 2637.347,766.403 2636.5,766.712C2636.062,766.882 2635.602,766.994 2635.119,767.047C2634.636,767.1 2633.893,767.127 2632.89,767.127C2631.35,767.127 2630.202,766.999 2629.445,766.744C2628.607,766.456 2628.187,765.966 2628.187,765.274C2628.187,765.019 2628.242,764.808 2628.351,764.643C2628.461,764.478 2628.743,764.177 2629.199,763.741C2629.436,763.517 2629.598,763.086 2629.684,762.447C2629.771,761.808 2629.814,760.722 2629.814,759.189C2629.814,758.337 2629.78,757.778 2629.712,757.512C2629.643,757.246 2629.5,757.113 2629.281,757.113C2629.026,757.113 2628.78,757.318 2628.543,757.727C2628.306,758.137 2627.95,758.955 2627.476,760.179Z" style="fill:rgb(95,95,95);fill-rule:nonzero;"/>
                    </g>
                    <g transform="matrix(1,0,0,1,-20,35.047064)">
                        <path d="M2646.207,745.756L2653.015,752.72C2653.653,753.37 2654.114,753.695 2654.396,753.695C2654.87,753.695 2655.107,753.104 2655.107,751.922C2655.107,750.58 2655.039,749.664 2654.902,749.174C2654.765,748.685 2654.478,748.317 2654.041,748.072C2653.685,747.87 2653.435,747.654 2653.289,747.426C2653.143,747.197 2653.07,746.901 2653.07,746.539C2653.07,745.645 2653.594,745.07 2654.642,744.814C2655.071,744.708 2655.818,744.654 2656.885,744.654C2658.261,744.654 2659.213,744.75 2659.742,744.942C2660.581,745.24 2661,745.804 2661,746.635C2661,747.327 2660.658,747.849 2659.974,748.2C2659.701,748.339 2659.514,748.461 2659.414,748.568C2659.314,748.674 2659.227,748.834 2659.154,749.047C2658.908,749.749 2658.78,751.08 2658.771,753.04L2658.771,758.247C2658.771,759.045 2658.776,760.137 2658.785,761.521C2658.794,763.395 2658.698,764.747 2658.498,765.578C2658.252,766.611 2657.805,767.127 2657.158,767.127C2656.875,767.127 2656.632,767.058 2656.427,766.919C2656.222,766.781 2655.882,766.461 2655.408,765.961L2647.301,757.48C2646.736,756.884 2646.266,756.585 2645.892,756.585C2645.336,756.585 2645.058,757.485 2645.058,759.285C2645.058,760.765 2645.129,761.776 2645.27,762.319C2645.412,762.862 2645.701,763.262 2646.139,763.517C2646.749,763.869 2647.055,764.327 2647.055,764.891C2647.055,766.371 2645.692,767.111 2642.967,767.111C2641.736,767.111 2640.781,766.922 2640.102,766.544C2639.423,766.166 2639.084,765.631 2639.084,764.939C2639.084,764.577 2639.148,764.305 2639.275,764.124C2639.403,763.943 2639.69,763.698 2640.137,763.39C2640.565,763.091 2640.825,762.564 2640.916,761.808C2641.071,760.435 2641.148,758.46 2641.148,755.883C2641.148,753.136 2641.012,751.134 2640.738,749.877C2640.638,749.419 2640.51,749.079 2640.355,748.855C2640.2,748.631 2639.945,748.418 2639.59,748.216C2639.18,747.982 2638.895,747.753 2638.735,747.529C2638.576,747.306 2638.496,747.034 2638.496,746.715C2638.496,745.693 2639.248,745.048 2640.752,744.782C2641.262,744.697 2642.155,744.654 2643.431,744.654C2644.161,744.654 2644.692,744.721 2645.024,744.854C2645.357,744.987 2645.751,745.288 2646.207,745.756Z" style="fill:rgb(95,95,95);fill-rule:nonzero;"/>
                    </g>
                </g>
            </g>
        </g>
    </g>
</svg>
